# xmcd
#
# Track frame offsets:
#	150
#	20070
#	44647
#	60465
#	78657
#	96090
#	110445
#	119060
#	132980
#	149610
#	164922
#	178975
#	194977
#	207175
#	227302
#	244937
#	258907
#	277005
#	293950
#	305780
#
# Disc length: 4357 seconds
#
# Revision: 8
# Processed by: cddbd v1.5.2PL0 Copyright (c) Steve Scherf et al.
# Submitted via: EasyCDDAExtractor 12.0.0.1
#
DISCID=4a110314
DTITLE=Various Artist - Now! The Christmas Album [CD2)
DYEAR=2000
DGENRE=Christmas
TTITLE0=Robbie Williams - Angels
TTITLE1=Frankie Goes To Hollywood - The Power Of Love
TTITLE2=Greg Lake - I Believe In Father Christmas
TTITLE3=Chris De Burgh - A Spaceman Came Travelling
TTITLE4=Cliff Richard - Mistletoe And Wine
TTITLE5=Nat 'King' Cole - The Christmas Song
TTITLE6=Dean Martin - Let It Snow, Let It Snow, Let It Snow
TTITLE7=Bing Crosby - White Christmas
TTITLE8=Sinead O'Connor - Silent Night
TTITLE9=Aled Jones - Walking In The Air
TTITLE10=The Magnets - A Winter's Tale
TTITLE11=Mud - Lonely This Christmas
TTITLE12=State Of The Heart - Please Come Home For Christmas
TTITLE13=Vanessa Williams - Have Yourself A Merry Little Christmas
TTITLE14=Michael Ball - Driving Home For Christmas
TTITLE15=Love Unlimited Orchestra - It May Be Winter Outside (But In My Heart 
TTITLE15=It's Spring)
TTITLE16=Hannah Morris - When A Child Is Born
TTITLE17=Dina Carroll - The Perfect Year
TTITLE18=Bing Crosby And David Bowie - Little Drummer Boy-Peace On Earth
TTITLE19=Cliff Richard - The Millennium Prayer
EXTD=YEAR: 2000
EXTT0=
EXTT1=
EXTT2=
EXTT3=
EXTT4=
EXTT5=
EXTT6=
EXTT7=
EXTT8=
EXTT9=
EXTT10=
EXTT11=
EXTT12=
EXTT13=
EXTT14=
EXTT15=
EXTT16=
EXTT17=
EXTT18=
EXTT19=
PLAYORDER=
